<?xml version="1.0" encoding="UTF-8" standalone="no"?>
<!-- Created with Inkscape (http://www.inkscape.org/) -->

<svg
   xmlns:dc="http://purl.org/dc/elements/1.1/"
   xmlns:cc="http://creativecommons.org/ns#"
   xmlns:rdf="http://www.w3.org/1999/02/22-rdf-syntax-ns#"
   xmlns:svg="http://www.w3.org/2000/svg"
   xmlns="http://www.w3.org/2000/svg"
   xmlns:sodipodi="http://sodipodi.sourceforge.net/DTD/sodipodi-0.dtd"
   xmlns:inkscape="http://www.inkscape.org/namespaces/inkscape"
   width="100"
   height="100"
   viewBox="0 0 26.458334 26.458333"
   version="1.1"
   id="svg8"
   sodipodi:docname="earth.svg"
   inkscape:version="0.92.3 (2405546, 2018-03-11)">
  <defs
     id="defs2" />
  <sodipodi:namedview
     id="base"
     pagecolor="#ffffff"
     bordercolor="#666666"
     borderopacity="1.0"
     inkscape:pageopacity="0.0"
     inkscape:pageshadow="2"
     inkscape:zoom="4.545"
     inkscape:cx="43.999074"
     inkscape:cy="43.999074"
     inkscape:document-units="mm"
     inkscape:current-layer="layer1"
     showgrid="false"
     units="px"
     inkscape:window-width="1920"
     inkscape:window-height="1056"
     inkscape:window-x="0"
     inkscape:window-y="24"
     inkscape:window-maximized="1"
     inkscape:snap-page="false" />
  <metadata
     id="metadata5">
    <rdf:RDF>
      <cc:Work
         rdf:about="">
        <dc:format>image/svg+xml</dc:format>
        <dc:type
           rdf:resource="http://purl.org/dc/dcmitype/StillImage" />
        <dc:title></dc:title>
      </cc:Work>
    </rdf:RDF>
  </metadata>
  <g
     inkscape:label="Layer 1"
     inkscape:groupmode="layer"
     id="layer1"
     transform="translate(0,-270.54168)">
    <path
       style="fill:#000000;stroke:none;stroke-width:6.27912426;stroke-miterlimit:4;stroke-dasharray:none"
       d="M 13.229166,270.6877 A 13.083142,13.083142 0 0 0 0.14602242,283.77085 13.083142,13.083142 0 0 0 13.229166,296.85399 13.083142,13.083142 0 0 0 26.312311,283.77085 13.083142,13.083142 0 0 0 13.229166,270.6877 Z m -1.869021,4.98406 -0.103833,3.21887 3.322704,-0.10378 0.830675,-1.14217 2.59586,0.20766 v 1.34985 l 0.830678,-0.10378 0.311503,1.66135 -1.661353,0.41534 -1.557515,1.14218 -1.765186,3.11504 -3.21887,0.41533 0.207669,2.90737 4.257214,1.76519 3.634207,-0.3115 0.519172,3.11503 h -2.492027 l -0.103839,1.97286 -2.699695,0.3115 -0.519173,-3.0112 -5.814731,-5.0879 -4.0495445,-4.46489 -0.2076691,-5.60706 2.595862,-1.45367 z"
       id="path4957"
       inkscape:connector-curvature="0" />
  </g>
</svg>
