<?xml version="1.0" encoding="UTF-8" standalone="no"?>
<svg
   xmlns:dc="http://purl.org/dc/elements/1.1/"
   xmlns:cc="http://creativecommons.org/ns#"
   xmlns:rdf="http://www.w3.org/1999/02/22-rdf-syntax-ns#"
   xmlns:svg="http://www.w3.org/2000/svg"
   xmlns="http://www.w3.org/2000/svg"
   id="svg8"
   version="1.1"
   viewBox="0 0 26.458333 26.458333"
   height="100"
   width="100">
  <defs
     id="defs2" />
  <metadata
     id="metadata5">
    <rdf:RDF>
      <cc:Work
         rdf:about="">
        <dc:format>image/svg+xml</dc:format>
        <dc:type
           rdf:resource="http://purl.org/dc/dcmitype/StillImage" />
        <dc:title></dc:title>
      </cc:Work>
    </rdf:RDF>
  </metadata>
  <g
     transform="translate(0,-270.54167)"
     id="layer1">
    <path
       id="path131"
       d="m 8.0811604,272.1208 c -0.7455693,0 -1.3303154,0.65154 -1.3601236,1.46193 v 1.43609 0.4687 H 5.0994304 v 19.8143 H 21.417814 v -19.8143 h -1.623157 v -0.4687 -1.43609 c -0.02981,-0.81039 -0.614556,-1.46193 -1.360124,-1.46193 z m -0.2754354,1.46193 h 10.904761 v 1.43609 0.4687 H 7.805725 v -0.4687 z m -5.5014729,1.90479 c -1.2290536,0 -2.21795246,1.0869 -2.21795246,2.43655 v 14.94224 c 0,1.34965 0.98889886,2.43551 2.21795246,2.43551 h 0.9710001 v -19.8143 z m 20.9372229,0 v 19.8143 h 0.971 c 1.229056,0 2.217953,-1.08586 2.217953,-2.43551 v -14.94224 c 0,-1.34965 -0.988897,-2.43655 -2.217953,-2.43655 z"
       style="fill:#000000;stroke-width:0.44658995" />
  </g>
</svg>
