<?xml version="1.0" encoding="UTF-8" standalone="no"?>
<!-- Created with Inkscape (http://www.inkscape.org/) -->

<svg
   xmlns:dc="http://purl.org/dc/elements/1.1/"
   xmlns:cc="http://creativecommons.org/ns#"
   xmlns:rdf="http://www.w3.org/1999/02/22-rdf-syntax-ns#"
   xmlns:svg="http://www.w3.org/2000/svg"
   xmlns="http://www.w3.org/2000/svg"
   xmlns:sodipodi="http://sodipodi.sourceforge.net/DTD/sodipodi-0.dtd"
   xmlns:inkscape="http://www.inkscape.org/namespaces/inkscape"
   width="100"
   height="100"
   viewBox="0 0 26.458334 26.458333"
   version="1.1"
   id="svg8"
   sodipodi:docname="phone.svg"
   inkscape:version="0.92.3 (2405546, 2018-03-11)">
  <defs
     id="defs2" />
  <sodipodi:namedview
     id="base"
     pagecolor="#ffffff"
     bordercolor="#666666"
     borderopacity="1.0"
     inkscape:pageopacity="0.0"
     inkscape:pageshadow="2"
     inkscape:zoom="2.2725"
     inkscape:cx="-91.992966"
     inkscape:cy="119.58748"
     inkscape:document-units="mm"
     inkscape:current-layer="layer1"
     showgrid="false"
     units="px"
     inkscape:window-width="1920"
     inkscape:window-height="1056"
     inkscape:window-x="0"
     inkscape:window-y="24"
     inkscape:window-maximized="1"
     inkscape:snap-page="false" />
  <metadata
     id="metadata5">
    <rdf:RDF>
      <cc:Work
         rdf:about="">
        <dc:format>image/svg+xml</dc:format>
        <dc:type
           rdf:resource="http://purl.org/dc/dcmitype/StillImage" />
        <dc:title></dc:title>
      </cc:Work>
    </rdf:RDF>
  </metadata>
  <g
     inkscape:label="Layer 1"
     inkscape:groupmode="layer"
     id="layer1"
     transform="translate(0,-270.54168)">
    <path
       style="fill:#000000;stroke:none;stroke-width:1.58996511;stroke-miterlimit:4;stroke-dasharray:none"
       d="m 3.1516055,271.01216 c -4.03746225,4.03751 -4.03746225,10.53841 0,14.57592 l 8.3288895,8.32898 c 4.037461,4.03752 10.5383,4.03752 14.575761,0 1.449439,-1.7483 -2.753764,-7.70577 -5.17506,-5.16117 -0.442886,0.44288 -1.351695,1.25139 -1.895909,1.47283 -0.544212,0.22145 -1.122791,0.33277 -1.70078,0.33277 -0.577988,0 -1.155745,-0.11122 -1.699958,-0.33277 -0.544213,-0.22144 -1.054953,-0.55294 -1.497836,-0.99582 l -5.7432114,-5.7441 c -0.442884,-0.4429 -0.775198,-0.95364 -0.99664,-1.49785 -0.221442,-0.54422 -0.331939,-1.122 -0.331939,-1.69999 0,-0.578 0.110497,-1.15575 0.331939,-1.69998 0.221442,-0.54421 0.553756,-1.05497 0.99664,-1.49782 2.0994784,-1.66323 -3.399107,-7.87202 -5.1918961,-6.081 z"
       id="path4935"
       inkscape:connector-curvature="0"
       sodipodi:nodetypes="cssccsssccssscc" />
  </g>
</svg>
