<?xml version="1.0" encoding="UTF-8" standalone="no"?>
<svg
   xmlns:dc="http://purl.org/dc/elements/1.1/"
   xmlns:cc="http://creativecommons.org/ns#"
   xmlns:rdf="http://www.w3.org/1999/02/22-rdf-syntax-ns#"
   xmlns:svg="http://www.w3.org/2000/svg"
   xmlns="http://www.w3.org/2000/svg"
   id="svg8"
   version="1.1"
   viewBox="0 0 26.458333 26.458333"
   height="100"
   width="100">
  <defs
     id="defs2" />
  <metadata
     id="metadata5">
    <rdf:RDF>
      <cc:Work
         rdf:about="">
        <dc:format>image/svg+xml</dc:format>
        <dc:type
           rdf:resource="http://purl.org/dc/dcmitype/StillImage" />
        <dc:title></dc:title>
      </cc:Work>
    </rdf:RDF>
  </metadata>
  <g
     transform="translate(0,-270.54167)"
     id="layer1">
    <path
       id="rect4976"
       d="m 12.209733,270.68088 c -0.619503,0 -1.118116,0.49862 -1.118116,1.11812 v 6.81191 l -4.8159887,-4.81682 c -0.4380542,-0.43806 -1.143327,-0.43806 -1.5813817,0 l -1.4418237,1.44183 c -0.4380548,0.43805 -0.4380548,1.14335 0,1.58139 l 4.8168148,4.81599 H 1.2573218 c -0.61950277,0 -1.11811545,0.4986 -1.11811545,1.11811 v 2.03887 c 0,0.6195 0.49861268,1.11812 1.11811545,1.11812 h 6.8110901 l -4.815989,4.81599 c -0.4380551,0.43806 -0.4380548,1.14333 0,1.58137 l 1.4418237,1.44266 c 0.4380547,0.43806 1.143327,0.43806 1.5813817,0 l 4.8159887,-4.81599 v 6.81025 c 0,0.61951 0.498613,1.11812 1.118116,1.11812 h 2.039693 c 0.619503,0 1.118116,-0.49861 1.118116,-1.11812 v -6.81025 l 4.815164,4.81516 c 0.438053,0.43806 1.143327,0.43806 1.58138,0 l 1.441825,-1.44183 c 0.438054,-0.43804 0.438054,-1.14331 0,-1.58137 l -4.81599,-4.81599 h 6.81109 c 0.619503,0 1.118116,-0.49862 1.118116,-1.11812 v -2.03887 c 0,-0.61951 -0.498613,-1.11811 -1.118116,-1.11811 h -6.810264 l 4.815989,-4.81599 c 0.438056,-0.43806 0.438056,-1.14334 0,-1.58139 l -1.44265,-1.44183 c -0.438053,-0.43806 -1.143327,-0.43806 -1.58138,0 l -4.815164,4.81518 V 271.799 c 0,-0.6195 -0.498613,-1.11812 -1.118116,-1.11812 z"
       style="fill:#000000;stroke:none;stroke-width:1.24481785;stroke-miterlimit:4;stroke-dasharray:none" />
  </g>
</svg>
